<svg width="42" height="42" viewBox="0 0 42 42" fill="none" xmlns="http://www.w3.org/2000/svg">
<path d="M18.375 14H23.625M11.83 38.5H30.17C35 38.5 36.925 35.5425 37.1525 31.9375L38.0625 17.4825C38.1192 16.5862 37.9915 15.6878 37.6873 14.8428C37.383 13.9978 36.9087 13.2242 36.2937 12.5698C35.6786 11.9154 34.9359 11.3941 34.1114 11.0381C33.2868 10.6821 32.3981 10.4989 31.5 10.5C30.4325 10.5 29.4525 9.8875 28.9625 8.9425L27.7025 6.405C26.8975 4.8125 24.7975 3.5 23.0125 3.5H19.005C17.2025 3.5 15.1025 4.8125 14.2975 6.405L13.0375 8.9425C12.5475 9.8875 11.5675 10.5 10.5 10.5C6.7025 10.5 3.6925 13.7025 3.9375 17.4825L4.8475 31.9375C5.0575 35.5425 7 38.5 11.83 38.5Z" stroke="black" stroke-width="1.5" stroke-linecap="round" stroke-linejoin="round"/>
<path d="M21 31.5C24.1325 31.5 26.6875 28.945 26.6875 25.8125C26.6875 22.68 24.1325 20.125 21 20.125C17.8675 20.125 15.3125 22.68 15.3125 25.8125C15.3125 28.945 17.8675 31.5 21 31.5Z" stroke="black" stroke-width="1.5" stroke-linecap="round" stroke-linejoin="round"/>
</svg>
